<svg width="16" height="16" viewBox="0 0 16 16" fill="none" xmlns="http://www.w3.org/2000/svg">
<g clip-path="url(#clip0_3_63)">
<rect width="16" height="16" fill="#EBF1FA"/>
<path d="M11.1459 17.646C11.5752 17.021 11.9416 16.355 12.2396 15.6578V17.5509L11.3241 23.9593C11.3148 24.0246 11.3196 24.091 11.3382 24.1543C11.3568 24.2175 11.3888 24.276 11.432 24.3258C11.4752 24.3756 11.5285 24.4155 11.5885 24.4429C11.6485 24.4702 11.7136 24.4844 11.7795 24.4844H12.6996C12.985 24.4847 13.2632 24.5733 13.4962 24.7381C13.7292 24.9028 13.9055 25.1356 14.001 25.4045H11.7795C10.9257 25.4036 10.1071 25.064 9.50341 24.4602C8.89968 23.8565 8.56008 23.0379 8.55912 22.1841V20.3469C9.56251 19.5932 10.4362 18.681 11.1459 17.646V17.646Z" fill="white"/>
<path d="M8.09904 4.59325L7.9233 4.24182H8.27478L8.09904 4.59325Z" fill="white"/>
<path d="M-6.62275 8.84241C-3.55761 8.84241 1.38848 11.5195 1.43805 11.5466C1.49513 11.5777 1.55816 11.5964 1.62298 11.6014C1.6878 11.6064 1.75295 11.5976 1.81412 11.5755C1.87529 11.5535 1.93111 11.5188 1.97788 11.4736C2.02465 11.4285 2.06132 11.3739 2.08547 11.3136L3.61487 7.48995L1.93434 8.7504C1.886 8.78665 1.831 8.81302 1.77248 8.82802C1.71395 8.84301 1.65305 8.84633 1.59324 8.83779C1.53343 8.82924 1.47589 8.809 1.4239 8.77822C1.37192 8.74744 1.3265 8.70672 1.29025 8.65839C1.25401 8.61005 1.22763 8.55505 1.21264 8.49653C1.19764 8.438 1.19432 8.3771 1.20287 8.31729C1.21141 8.25748 1.23165 8.19994 1.26243 8.14795C1.29321 8.09597 1.33393 8.05055 1.38227 8.0143L3.95859 6.08206H1.6583C1.53629 6.08206 1.41927 6.03359 1.33299 5.94731C1.24671 5.86103 1.19824 5.74402 1.19824 5.622C1.19824 5.49999 1.24671 5.38297 1.33299 5.29669C1.41927 5.21041 1.53629 5.16194 1.6583 5.16194H3.95859V4.70188C3.95814 4.10834 4.12212 3.52628 4.43234 3.02026C4.46649 2.96461 4.48841 2.90234 4.49664 2.83758C4.50487 2.77281 4.49922 2.70704 4.48007 2.64462C4.46092 2.58221 4.4287 2.52459 4.38556 2.47558C4.34242 2.42658 4.28934 2.38732 4.22986 2.36042C4.16193 2.32992 4.10243 2.28337 4.05647 2.22479C4.01051 2.16621 3.97946 2.09734 3.96601 2.0241C3.95255 1.95087 3.95709 1.87546 3.97923 1.80437C4.00136 1.73327 4.04044 1.66862 4.09309 1.61597C4.14574 1.56332 4.21039 1.52424 4.28149 1.50211C4.35258 1.47997 4.42799 1.47544 4.50122 1.48889C4.57446 1.50234 4.64333 1.53339 4.70191 1.57935C4.76049 1.62531 4.80704 1.68481 4.83754 1.75274C4.86444 1.81222 4.9037 1.8653 4.9527 1.90844C5.0017 1.95158 5.05933 1.9838 5.12174 2.00295C5.18415 2.0221 5.24993 2.02775 5.3147 2.01952C5.37946 2.01129 5.44173 1.98937 5.49737 1.95522C6.0034 1.645 6.58546 1.48102 7.179 1.48148H9.01924C9.61278 1.48102 10.1948 1.645 10.7009 1.95522C10.7565 1.98937 10.8188 2.01129 10.8835 2.01952C10.9483 2.02775 11.0141 2.0221 11.0765 2.00295C11.1389 1.9838 11.1965 1.95158 11.2455 1.90844C11.2945 1.8653 11.3338 1.81222 11.3607 1.75274C11.3912 1.68481 11.4377 1.62531 11.4963 1.57935C11.5549 1.53339 11.6238 1.50234 11.697 1.48889C11.7703 1.47544 11.8457 1.47997 11.9168 1.50211C11.9878 1.52424 12.0525 1.56332 12.1052 1.61597C12.1578 1.66862 12.1969 1.73327 12.219 1.80437C12.2411 1.87546 12.2457 1.95087 12.2322 2.0241C12.2188 2.09734 12.1877 2.16621 12.1418 2.22479C12.0958 2.28337 12.0363 2.32992 11.9684 2.36042C11.9089 2.38732 11.8558 2.42658 11.8127 2.47558C11.7695 2.52459 11.7373 2.58221 11.7182 2.64462C11.699 2.70704 11.6934 2.77281 11.7016 2.83758C11.7098 2.90234 11.7317 2.96461 11.7659 3.02026C12.0761 3.52628 12.2401 4.10834 12.2396 4.70188V5.16194H14.5399C14.662 5.16194 14.779 5.21041 14.8653 5.29669C14.9515 5.38297 15 5.49999 15 5.622C15 5.74402 14.9515 5.86103 14.8653 5.94731C14.779 6.03359 14.662 6.08206 14.5399 6.08206H12.2396L14.816 8.0143C14.9136 8.08751 14.9781 8.1965 14.9954 8.31729C15.0126 8.43808 14.9812 8.56077 14.908 8.65839C14.8348 8.756 14.7258 8.82053 14.605 8.83779C14.4842 8.85504 14.3615 8.82361 14.2639 8.7504L12.2396 7.2322V11.1427C12.2399 13.1283 11.6816 15.0739 10.6284 16.7572C9.5752 18.4405 8.06968 19.7935 6.2839 20.6616L6.71434 17.6486C6.73159 17.5278 6.70015 17.4051 6.62693 17.3075C6.55372 17.2098 6.44472 17.1453 6.32393 17.1281C6.20313 17.1108 6.08043 17.1423 5.98282 17.2155C5.88521 17.2887 5.82068 17.3977 5.80343 17.5185L4.88331 23.9593C4.87399 24.0245 4.8788 24.091 4.89742 24.1543C4.91604 24.2175 4.94802 24.276 4.99121 24.3258C5.0344 24.3756 5.08778 24.4155 5.14775 24.4429C5.20771 24.4702 5.27286 24.4844 5.33877 24.4844H6.25889C6.54423 24.4847 6.82248 24.5733 7.05547 24.7381C7.28846 24.9028 7.46477 25.1356 7.56022 25.4045H5.33877C4.48496 25.4036 3.66639 25.064 3.06266 24.4602C2.45892 23.8565 2.11932 23.0379 2.11836 22.1841V17.5835C2.11836 17.4615 2.06989 17.3445 1.98361 17.2582C1.89733 17.1719 1.78032 17.1235 1.6583 17.1235C1.53629 17.1235 1.41927 17.1719 1.33299 17.2582C1.24671 17.3445 1.19824 17.4615 1.19824 17.5835V21.724H-3.98892L-3.40694 17.6486C-3.38969 17.5278 -3.42114 17.4051 -3.49435 17.3075C-3.56757 17.2098 -3.67656 17.1453 -3.79736 17.1281C-3.91815 17.1108 -4.04085 17.1423 -4.13847 17.2155C-4.23608 17.2887 -4.30061 17.3977 -4.31786 17.5185L-5.23798 23.9593C-5.24729 24.0245 -5.24248 24.091 -5.22387 24.1543C-5.20525 24.2175 -5.17327 24.276 -5.13008 24.3258C-5.08689 24.3756 -5.03351 24.4155 -4.97354 24.4429C-4.91358 24.4702 -4.84843 24.4844 -4.78252 24.4844H-3.8624C-3.57706 24.4847 -3.2988 24.5733 -3.06582 24.7381C-2.83283 24.9028 -2.65651 25.1356 -2.56107 25.4045H-4.78252C-5.63633 25.4036 -6.4549 25.064 -7.05863 24.4602C-7.66237 23.8565 -8.00197 23.0379 -8.00293 22.1841C-8.00252 21.8182 -7.85697 21.4674 -7.59823 21.2086C-7.33949 20.9499 -6.98867 20.8043 -6.62275 20.8039C-6.50074 20.8039 -6.38372 20.7555 -6.29744 20.6692C-6.21116 20.5829 -6.16269 20.4659 -6.16269 20.3439C-6.16269 20.2219 -6.21116 20.1048 -6.29744 20.0186C-6.38372 19.9323 -6.50074 19.8838 -6.62275 19.8838C-7.23262 19.8845 -7.81731 20.1271 -8.24855 20.5583C-8.67979 20.9895 -8.92236 21.5742 -8.92304 22.1841C-8.92181 23.2819 -8.48518 24.3343 -7.70895 25.1105C-6.93272 25.8868 -5.88028 26.3234 -4.78252 26.3246C-4.49717 26.325 -4.21892 26.4136 -3.98593 26.5783C-3.75294 26.743 -3.57663 26.9758 -3.48118 27.2447H-6.62275C-7.96445 27.2432 -9.25076 26.7096 -10.1995 25.7608C-11.1482 24.8121 -11.6819 23.5258 -11.6834 22.1841V13.9031C-11.6819 12.5614 -11.1482 11.275 -10.1995 10.3263C-9.25076 9.37759 -7.96445 8.84393 -6.62275 8.84241V8.84241ZM10.8595 4.24183C10.9505 4.24183 11.0394 4.21484 11.1151 4.16429C11.1907 4.11374 11.2497 4.04189 11.2845 3.95782C11.3193 3.87376 11.3284 3.78126 11.3107 3.69201C11.2929 3.60277 11.2491 3.5208 11.1848 3.45646C11.1204 3.39212 11.0385 3.3483 10.9492 3.33055C10.86 3.3128 10.7675 3.32191 10.6834 3.35673C10.5994 3.39155 10.5275 3.45052 10.4769 3.52617C10.4264 3.60183 10.3994 3.69078 10.3994 3.78177C10.3994 3.90378 10.4479 4.0208 10.5342 4.10708C10.6204 4.19336 10.7375 4.24183 10.8595 4.24183ZM7.179 7.00218C7.51874 7.00241 7.84653 6.87681 8.09912 6.6496C8.35171 6.87681 8.6795 7.00241 9.01924 7.00218C9.14125 7.00218 9.25827 6.95371 9.34455 6.86743C9.43083 6.78115 9.4793 6.66413 9.4793 6.54212C9.4793 6.4201 9.43083 6.30308 9.34455 6.21681C9.25827 6.13053 9.14125 6.08206 9.01924 6.08206C8.91298 6.08191 8.81004 6.04504 8.72784 5.9777C8.64565 5.91035 8.58925 5.81667 8.56821 5.71252L9.43082 3.9873C9.46584 3.91716 9.48236 3.83923 9.47881 3.76091C9.47525 3.6826 9.45175 3.60648 9.41051 3.53981C9.36928 3.47313 9.31169 3.41809 9.24321 3.37992C9.17473 3.34175 9.09764 3.32171 9.01924 3.32171H7.179C7.10058 3.32171 7.02347 3.34176 6.95497 3.37995C6.88648 3.41814 6.82889 3.4732 6.78766 3.53991C6.74644 3.60662 6.72295 3.68276 6.71943 3.76111C6.7159 3.83945 6.73247 3.91739 6.76754 3.98753L7.63015 5.71275C7.60905 5.81688 7.55262 5.91052 7.47041 5.97782C7.38819 6.04512 7.28525 6.08195 7.179 6.08206C7.05699 6.08206 6.93997 6.13053 6.85369 6.21681C6.76742 6.30308 6.71895 6.4201 6.71895 6.54212C6.71895 6.66413 6.76742 6.78115 6.85369 6.86743C6.93997 6.95371 7.05699 7.00218 7.179 7.00218ZM5.79883 3.78177C5.79883 3.69078 5.77185 3.60183 5.72129 3.52617C5.67074 3.45052 5.59889 3.39155 5.51483 3.35673C5.43076 3.32191 5.33826 3.3128 5.24902 3.33055C5.15977 3.3483 5.0778 3.39212 5.01346 3.45646C4.94912 3.5208 4.9053 3.60277 4.88755 3.69201C4.8698 3.78126 4.87891 3.87376 4.91373 3.95782C4.94855 4.04189 5.00752 4.11374 5.08317 4.16429C5.15883 4.21484 5.24778 4.24183 5.33877 4.24183C5.46078 4.24183 5.5778 4.19336 5.66408 4.10708C5.75036 4.0208 5.79883 3.90378 5.79883 3.78177Z" fill="white"/>
<path d="M7.33433 6.40319C7.43827 6.40305 7.53897 6.367 7.61937 6.30113C7.69977 6.23527 7.75494 6.14364 7.77551 6.04178L6.93174 4.35453C6.89748 4.28593 6.88132 4.20972 6.8848 4.13312C6.88828 4.05653 6.91127 3.98209 6.9516 3.91688C6.99194 3.85167 7.04827 3.79784 7.11525 3.76051C7.18223 3.72318 7.25765 3.70359 7.33433 3.70358H9.13437C9.21108 3.70359 9.28651 3.72319 9.35351 3.76054C9.4205 3.79789 9.47684 3.85175 9.51716 3.91699C9.55749 3.98223 9.58047 4.05669 9.58391 4.13331C9.58735 4.20993 9.57116 4.28615 9.53685 4.35475L8.69308 6.042C8.71371 6.14384 8.76891 6.23542 8.84933 6.30124C8.92975 6.36706 9.03044 6.40308 9.13437 6.40319C9.25372 6.40319 9.36818 6.45059 9.45258 6.53497C9.53697 6.61935 9.58438 6.73379 9.58438 6.85312C9.58438 6.97245 9.53697 7.08689 9.45258 7.17127C9.36818 7.25565 9.25372 7.30305 9.13437 7.30305C8.80205 7.30328 8.48142 7.18044 8.23435 6.95824C7.98728 7.18044 7.66665 7.30328 7.33433 7.30305C7.21498 7.30305 7.10052 7.25565 7.01613 7.17127C6.93173 7.08689 6.88432 6.97245 6.88432 6.85312C6.88432 6.73379 6.93173 6.61935 7.01613 6.53497C7.10052 6.45059 7.21498 6.40319 7.33433 6.40319ZM8.23435 4.94715L8.40625 4.60345H8.06245L8.23435 4.94715ZM10.4844 4.15352C10.4844 4.24251 10.5108 4.3295 10.5602 4.40349C10.6097 4.47748 10.68 4.53515 10.7622 4.5692C10.8444 4.60326 10.9349 4.61217 11.0222 4.59481C11.1095 4.57745 11.1897 4.53459 11.2526 4.47167C11.3155 4.40874 11.3584 4.32857 11.3758 4.2413C11.3931 4.15402 11.3842 4.06355 11.3502 3.98134C11.3161 3.89912 11.2584 3.82885 11.1844 3.77941C11.1104 3.72997 11.0234 3.70358 10.9344 3.70358C10.8151 3.70358 10.7006 3.75099 10.6162 3.83537C10.5318 3.91975 10.4844 4.03419 10.4844 4.15352ZM5.9843 4.15352C5.9843 4.06453 5.95791 3.97754 5.90846 3.90355C5.85902 3.82956 5.78873 3.77189 5.7065 3.73783C5.62428 3.70378 5.53379 3.69487 5.4465 3.71223C5.35921 3.72959 5.27902 3.77244 5.21609 3.83537C5.15315 3.89829 5.11029 3.97846 5.09293 4.06574C5.07557 4.15302 5.08448 4.24349 5.11854 4.3257C5.1526 4.40792 5.21028 4.47819 5.28428 4.52762C5.35828 4.57706 5.44529 4.60345 5.53429 4.60345C5.65364 4.60345 5.76811 4.55605 5.8525 4.47167C5.93689 4.38729 5.9843 4.27285 5.9843 4.15352ZM-6.16596 8.20292C-3.4659 8.20292 0.392257 10.0521 1.70167 10.7222L2.46331 8.81854L2.20422 9.0128C2.15694 9.04825 2.10315 9.07405 2.0459 9.08871C1.98865 9.10338 1.92908 9.10662 1.87058 9.09827C1.81207 9.08991 1.75579 9.07012 1.70494 9.04001C1.65409 9.00991 1.60967 8.97008 1.57421 8.92282C1.53875 8.87555 1.51295 8.82176 1.49829 8.76452C1.48362 8.70728 1.48037 8.64772 1.48873 8.58922C1.49709 8.53073 1.51688 8.47446 1.54699 8.42362C1.5771 8.37277 1.61693 8.32836 1.66421 8.29291L3.10615 7.21166L3.28425 6.76645V6.40319H1.93422C1.81487 6.40319 1.7004 6.35578 1.61601 6.2714C1.53162 6.18702 1.48421 6.07258 1.48421 5.95325C1.48421 5.83392 1.53162 5.71948 1.61601 5.6351C1.7004 5.55072 1.81487 5.50332 1.93422 5.50332H3.28425V5.05339C3.28399 4.44918 3.41907 3.8526 3.67958 3.30742C3.55327 3.18235 3.45292 3.03355 3.38429 2.86959C3.31567 2.70563 3.28012 2.52972 3.27969 2.35198C3.27925 2.17424 3.31395 1.99817 3.38178 1.83387C3.44962 1.66958 3.54924 1.5203 3.67495 1.39462C3.80065 1.26894 3.94995 1.16933 4.11427 1.10151C4.2786 1.03369 4.4547 0.998994 4.63247 0.999424C4.81024 0.999854 4.98618 1.0354 5.15017 1.10401C5.31416 1.17263 5.46298 1.27296 5.58807 1.39925C6.13334 1.13879 6.73003 1.00373 7.33433 1.00398H9.13437C9.73867 1.00373 10.3354 1.13879 10.8806 1.39925C11.0057 1.27296 11.1545 1.17263 11.3185 1.10401C11.4825 1.0354 11.6585 0.999854 11.8362 0.999424C12.014 0.998994 12.1901 1.03369 12.3544 1.10151C12.5187 1.16933 12.6681 1.26894 12.7938 1.39462C12.9195 1.5203 13.0191 1.66958 13.0869 1.83387C13.1547 1.99817 13.1894 2.17424 13.189 2.35198C13.1886 2.52972 13.153 2.70563 13.0844 2.86959C13.0158 3.03355 12.9154 3.18235 12.7891 3.30742C13.0496 3.8526 13.1847 4.44918 13.1845 5.05339V5.50332H14.5345C14.6538 5.50332 14.7683 5.55072 14.8527 5.6351C14.9371 5.71948 14.9845 5.83392 14.9845 5.95325C14.9845 6.07258 14.9371 6.18702 14.8527 6.2714C14.7683 6.35578 14.6538 6.40319 14.5345 6.40319H13.1845V7.07809L14.8045 8.29291C14.9 8.36451 14.9631 8.47109 14.98 8.58922C14.9969 8.70735 14.9661 8.82735 14.8945 8.92282C14.8229 9.01828 14.7163 9.08139 14.5981 9.09827C14.48 9.11514 14.36 9.0844 14.2645 9.0128L13.1845 8.20292V17.6515C13.1845 17.6728 13.183 17.6941 13.18 17.7151L12.3533 23.5007H12.7344C13.331 23.5013 13.9029 23.7386 14.3247 24.1603C14.7466 24.5821 14.9838 25.1539 14.9845 25.7503C14.9845 25.8697 14.9371 25.9841 14.8527 26.0685C14.7683 26.1529 14.6538 26.2003 14.5345 26.2003H11.8344C10.7606 26.1991 9.73119 25.772 8.97192 25.0129C8.21264 24.2537 7.78555 23.2245 7.78434 22.1509V20.9634C7.31137 21.2511 6.81784 21.5036 6.30775 21.7188L6.05315 23.5007H6.43431C7.03086 23.5013 7.60278 23.7386 8.0246 24.1603C8.44642 24.5821 8.68369 25.1539 8.68436 25.7503C8.68436 25.8697 8.63695 25.9841 8.55256 26.0685C8.46816 26.1529 8.3537 26.2003 8.23435 26.2003H5.53429C4.5385 26.1989 3.57801 25.8313 2.83584 25.1675C2.09366 24.5037 1.62167 23.5901 1.5098 22.6008H-3.71852L-3.84706 23.5007H-3.4659C-2.86935 23.5013 -2.29743 23.7386 -1.87561 24.1603C-1.45379 24.5821 -1.21652 25.1539 -1.21585 25.7503C-1.21585 25.8697 -1.26326 25.9841 -1.34766 26.0685C-1.43205 26.1529 -1.54651 26.2003 -1.66586 26.2003H-2.56712C-2.27379 26.5891 -2.11536 27.063 -2.11587 27.5501C-2.11587 27.6694 -2.16328 27.7838 -2.24767 27.8682C-2.33207 27.9526 -2.44653 28 -2.56588 28H-6.16596C-7.71697 27.9982 -9.20395 27.3814 -10.3007 26.2849C-11.3974 25.1883 -12.0143 23.7016 -12.0161 22.1509V14.0521C-12.0143 12.5013 -11.3974 11.0146 -10.3007 9.91803C-9.20395 8.82149 -7.71697 8.20468 -6.16596 8.20292ZM8.68436 22.1509C8.6853 22.9859 9.01748 23.7864 9.60803 24.3769C10.1986 24.9673 10.9993 25.2995 11.8344 25.3004H14.0074C13.914 25.0374 13.7415 24.8097 13.5136 24.6486C13.2857 24.4875 13.0136 24.4009 12.7344 24.4005H11.8344C11.77 24.4005 11.7062 24.3867 11.6476 24.3599C11.5889 24.3332 11.5367 24.2941 11.4945 24.2454C11.4522 24.1967 11.4209 24.1395 11.4027 24.0777C11.3845 24.0158 11.3798 23.9508 11.3889 23.887L12.2844 17.6196V15.7682C11.5062 17.5853 10.2649 19.1665 8.68436 20.3541V22.1509ZM-11.1161 22.1509C-11.1146 23.463 -10.5926 24.721 -9.66457 25.6489C-8.73656 26.5767 -7.47835 27.0986 -6.16596 27.1001H-3.09301C-3.18637 26.8371 -3.35883 26.6095 -3.58673 26.4484C-3.81463 26.2873 -4.08681 26.2006 -4.36592 26.2003C-5.4397 26.1991 -6.46915 25.772 -7.22843 25.0129C-7.98771 24.2537 -8.4148 23.2245 -8.41601 22.1509C-8.41534 21.5544 -8.17806 20.9826 -7.75624 20.5608C-7.33442 20.1391 -6.7625 19.9019 -6.16596 19.9012C-6.04661 19.9012 -5.93214 19.9486 -5.84775 20.033C-5.76336 20.1174 -5.71595 20.2318 -5.71595 20.3511C-5.71595 20.4705 -5.76336 20.5849 -5.84775 20.6693C-5.93214 20.7537 -6.04661 20.8011 -6.16596 20.8011C-6.52388 20.8015 -6.86704 20.9438 -7.12013 21.1969C-7.37322 21.4499 -7.51558 21.793 -7.51599 22.1509C-7.51505 22.9859 -7.18287 23.7864 -6.59232 24.3769C-6.00177 24.9673 -5.20108 25.2995 -4.36592 25.3004H-2.19299C-2.28635 25.0374 -2.45881 24.8097 -2.68671 24.6486C-2.91461 24.4875 -3.18679 24.4009 -3.4659 24.4005H-4.36592C-4.43039 24.4005 -4.49411 24.3867 -4.55277 24.3599C-4.61142 24.3332 -4.66364 24.2941 -4.70589 24.2454C-4.74813 24.1967 -4.77942 24.1395 -4.79763 24.0777C-4.81584 24.0158 -4.82054 23.9508 -4.81143 23.887L-3.91141 17.5879C-3.89454 17.4698 -3.83142 17.3632 -3.73593 17.2916C-3.64045 17.22 -3.52044 17.1892 -3.40228 17.2061C-3.28412 17.223 -3.17751 17.2861 -3.10589 17.3815C-3.03427 17.477 -3.00352 17.597 -3.02039 17.7151L-3.58993 21.7009H1.48421V17.6515C1.48421 17.5322 1.53162 17.4178 1.61601 17.3334C1.7004 17.249 1.81487 17.2016 1.93422 17.2016C2.05357 17.2016 2.16803 17.249 2.25242 17.3334C2.33682 17.4178 2.38423 17.5322 2.38423 17.6515V22.1509C2.38516 22.9859 2.71735 23.7864 3.30789 24.3769C3.89844 24.9673 4.69913 25.2995 5.53429 25.3004H7.70722C7.61386 25.0374 7.4414 24.8097 7.2135 24.6486C6.9856 24.4875 6.71342 24.4009 6.43431 24.4005H5.53429C5.46982 24.4005 5.4061 24.3867 5.34744 24.3599C5.28879 24.3332 5.23657 24.2941 5.19432 24.2454C5.15208 24.1967 5.12079 24.1395 5.10258 24.0777C5.08437 24.0158 5.07967 23.9508 5.08878 23.887L5.9888 17.5879C6.00568 17.4698 6.0688 17.3632 6.16428 17.2916C6.25976 17.22 6.37978 17.1892 6.49793 17.2061C6.61609 17.223 6.7227 17.2861 6.79432 17.3815C6.86594 17.477 6.8967 17.597 6.87982 17.7151L6.45878 20.6619C8.20556 19.8129 9.67819 18.4896 10.7084 16.8434C11.7386 15.1972 12.2847 13.2944 12.2844 11.3525V7.52802L10.6644 6.3132C10.5888 6.2566 10.533 6.17764 10.5048 6.08752C10.4766 5.9974 10.4775 5.9007 10.5074 5.81113C10.5373 5.72156 10.5946 5.64367 10.6712 5.58851C10.7479 5.53335 10.84 5.50372 10.9344 5.50383L12.2844 5.50332V5.05339C12.2849 4.47291 12.1245 3.90365 11.821 3.40877C11.7876 3.35435 11.7662 3.29345 11.7581 3.23011C11.7501 3.16677 11.7556 3.10244 11.7744 3.0414C11.7931 2.98036 11.8246 2.924 11.8668 2.87608C11.909 2.82816 11.9609 2.78976 12.0191 2.76345C12.0855 2.73362 12.1437 2.6881 12.1887 2.63081C12.2337 2.57351 12.264 2.50616 12.2772 2.43454C12.2903 2.36291 12.2859 2.28917 12.2643 2.21964C12.2426 2.15011 12.2044 2.08688 12.1529 2.03539C12.1014 1.98389 12.0381 1.94568 11.9686 1.92403C11.8991 1.90238 11.8253 1.89794 11.7537 1.9111C11.682 1.92426 11.6147 1.95462 11.5574 1.99957C11.5001 2.04452 11.4545 2.10271 11.4247 2.16914C11.3984 2.22732 11.36 2.27923 11.312 2.32142C11.2641 2.36361 11.2077 2.39512 11.1467 2.41385C11.0856 2.43258 11.0213 2.4381 10.958 2.43006C10.8946 2.42201 10.8337 2.40057 10.7793 2.36717C10.2843 2.06378 9.71495 1.90341 9.13437 1.90385H7.33433C6.75375 1.90341 6.1844 2.06378 5.68943 2.36717C5.63501 2.40057 5.5741 2.42201 5.51074 2.43006C5.44739 2.4381 5.38306 2.43258 5.32201 2.41385C5.26095 2.39512 5.20459 2.36361 5.15666 2.32142C5.10873 2.27923 5.07033 2.22732 5.04401 2.16914C5.01417 2.10271 4.96865 2.04452 4.91134 1.99957C4.85404 1.95462 4.78667 1.92426 4.71504 1.9111C4.6434 1.89794 4.56965 1.90238 4.5001 1.92403C4.43056 1.94568 4.36732 1.98389 4.31582 2.03539C4.26432 2.08688 4.2261 2.15011 4.20445 2.21964C4.18279 2.28917 4.17836 2.36291 4.19152 2.43454C4.20468 2.50616 4.23504 2.57351 4.28 2.63081C4.32495 2.6881 4.38316 2.73362 4.4496 2.76345C4.50779 2.78976 4.5597 2.82816 4.6019 2.87608C4.6441 2.924 4.67561 2.98036 4.69435 3.0414C4.71308 3.10244 4.71861 3.16677 4.71056 3.23011C4.70251 3.29345 4.68107 3.35435 4.64766 3.40877C4.34422 3.90365 4.18382 4.47291 4.18426 5.05339V5.50332H5.53429C5.62875 5.5032 5.72084 5.53327 5.7975 5.58843C5.87417 5.64359 5.93151 5.7215 5.96139 5.81108C5.99128 5.90067 5.99218 5.99739 5.96399 6.08752C5.93579 6.17765 5.87992 6.25661 5.8043 6.3132L3.84805 7.7801L2.35177 11.5196C2.32815 11.5786 2.29228 11.6319 2.24653 11.6761C2.20078 11.7203 2.14619 11.7542 2.08635 11.7758C2.02651 11.7973 1.96279 11.8059 1.89938 11.801C1.83598 11.7962 1.77432 11.7779 1.71849 11.7474C1.67029 11.721 -3.16805 9.10279 -6.16596 9.10279C-7.47835 9.10428 -8.73656 9.62619 -9.66457 10.554C-10.5926 11.4819 -11.1146 12.7399 -11.1161 14.0521V22.1509Z" fill="#3771C8"/>
</g>
<defs>
<clipPath id="clip0_3_63">
<rect width="16" height="16" fill="white"/>
</clipPath>
</defs>
</svg>
