<svg width="180" height="180" viewBox="0 0 180 180" fill="none" xmlns="http://www.w3.org/2000/svg">
<g clip-path="url(#clip0_3_81)">
<path d="M125.391 198.517C130.221 191.486 134.342 183.994 137.695 176.15V197.447L127.396 269.542C127.291 270.276 127.345 271.024 127.554 271.736C127.764 272.447 128.124 273.105 128.609 273.665C129.095 274.225 129.696 274.674 130.37 274.982C131.045 275.29 131.778 275.449 132.519 275.449H142.871C146.081 275.453 149.211 276.45 151.832 278.303C154.453 280.157 156.437 282.776 157.511 285.801H132.519C122.914 285.79 113.705 281.969 106.913 275.177C100.121 268.385 96.3006 259.177 96.2898 249.571V228.902C107.578 220.424 117.407 210.161 125.391 198.517V198.517Z" fill="white"/>
<path d="M91.1147 51.6739L89.1376 47.7204H93.0918L91.1147 51.6739Z" fill="white"/>
<path d="M82.5108 72.0358C83.6802 72.0343 84.813 71.6287 85.7176 70.8877C86.6221 70.1468 87.2426 69.116 87.4741 67.97L77.9817 48.9884C77.5963 48.2167 77.4145 47.3593 77.4536 46.4976C77.4927 45.6359 77.7514 44.7985 78.2051 44.0649C78.6589 43.3313 79.2926 42.7257 80.0462 42.3058C80.7997 41.8858 81.6481 41.6654 82.5108 41.6653H102.761C103.624 41.6654 104.473 41.8859 105.227 42.3061C105.98 42.7263 106.614 43.3321 107.068 44.0661C107.521 44.8001 107.78 45.6378 107.819 46.4998C107.857 47.3617 107.675 48.2192 107.289 48.9909L97.7967 67.9725C98.0289 69.1182 98.6499 70.1485 99.5546 70.889C100.459 71.6295 101.592 72.0346 102.761 72.0358C104.104 72.0358 105.392 72.5691 106.341 73.5184C107.29 74.4677 107.824 75.7551 107.824 77.0976C107.824 78.4401 107.29 79.7275 106.341 80.6768C105.392 81.6261 104.104 82.1593 102.761 82.1593C99.0227 82.1619 95.4156 80.78 92.6361 78.2802C89.8565 80.78 86.2494 82.1619 82.5108 82.1593C81.1681 82.1593 79.8804 81.6261 78.931 80.6768C77.9816 79.7275 77.4482 78.4401 77.4482 77.0976C77.4482 75.7551 77.9816 74.4677 78.931 73.5184C79.8804 72.5691 81.1681 72.0358 82.5108 72.0358ZM92.6361 55.6554L94.57 51.7888H90.7021L92.6361 55.6554ZM117.949 46.7271C117.949 47.7282 118.246 48.7068 118.802 49.5392C119.359 50.3716 120.149 51.0204 121.074 51.4035C121.999 51.7866 123.017 51.8869 123.999 51.6916C124.981 51.4963 125.883 51.0142 126.592 50.3063C127.3 49.5984 127.782 48.6965 127.977 47.7146C128.172 46.7327 128.072 45.7149 127.689 44.79C127.306 43.8651 126.657 43.0746 125.824 42.5184C124.992 41.9622 124.013 41.6653 123.012 41.6653C121.669 41.6653 120.381 42.1986 119.432 43.1479C118.482 44.0971 117.949 45.3846 117.949 46.7271ZM67.323 46.7271C67.323 45.726 67.0261 44.7473 66.4698 43.9149C65.9135 43.0825 65.1228 42.4337 64.1978 42.0506C63.2727 41.6675 62.2548 41.5673 61.2727 41.7626C60.2907 41.9579 59.3886 42.44 58.6806 43.1479C57.9726 43.8558 57.4904 44.7577 57.2951 45.7396C57.0997 46.7215 57.2 47.7392 57.5832 48.6641C57.9663 49.589 58.6152 50.3796 59.4478 50.9358C60.2803 51.492 61.2591 51.7888 62.2604 51.7888C63.6031 51.7888 64.8908 51.2555 65.8402 50.3063C66.7896 49.357 67.323 48.0695 67.323 46.7271ZM-69.3674 92.2829C-38.9918 92.2829 4.4125 113.086 19.1434 120.625L27.7119 99.2086L24.7971 101.394C24.2652 101.793 23.66 102.083 23.016 102.248C22.3719 102.413 21.7017 102.45 21.0436 102.356C20.3854 102.261 19.7522 102.039 19.1802 101.7C18.6081 101.361 18.1083 100.913 17.7094 100.382C17.3105 99.8499 17.0203 99.2448 16.8553 98.6008C16.6903 97.9569 16.6538 97.2868 16.7478 96.6288C16.8418 95.9707 17.0646 95.3377 17.4033 94.7657C17.742 94.1937 18.1901 93.6941 18.722 93.2952L34.9438 81.1312L36.9474 76.1226V72.0358H21.7595C20.4168 72.0358 19.1291 71.5026 18.1797 70.5533C17.2303 69.604 16.6969 68.3165 16.6969 66.9741C16.6969 65.6316 17.2303 64.3441 18.1797 63.3949C19.1291 62.4456 20.4168 61.9123 21.7595 61.9123H36.9474V56.8506C36.9445 50.0533 38.4642 43.3417 41.3949 37.2084C39.9739 35.8014 38.8449 34.1275 38.0729 32.2829C37.3008 30.4383 36.9009 28.4594 36.8961 26.4598C36.8912 24.4602 37.2816 22.4794 38.0447 20.631C38.8078 18.7827 39.9286 17.1034 41.3428 15.6895C42.7569 14.2755 44.4366 13.1549 46.2852 12.3919C48.1338 11.629 50.115 11.2387 52.1149 11.2435C54.1148 11.2484 56.0941 11.6482 57.939 12.4201C59.7839 13.192 61.4581 14.3208 62.8654 15.7415C68.9997 12.8114 75.7124 11.2919 82.5108 11.2948H102.761C109.56 11.2919 116.272 12.8114 122.407 15.7415C123.814 14.3208 125.488 13.192 127.333 12.4201C129.178 11.6482 131.157 11.2484 133.157 11.2435C135.157 11.2387 137.138 11.629 138.987 12.3919C140.836 13.1549 142.515 14.2755 143.929 15.6895C145.343 17.1034 146.464 18.7827 147.227 20.631C147.991 22.4794 148.381 24.4602 148.376 26.4598C148.371 28.4594 147.971 30.4383 147.199 32.2829C146.427 34.1275 145.298 35.8014 143.877 37.2084C146.808 43.3417 148.328 50.0533 148.325 56.8506V61.9123H163.513C164.855 61.9123 166.143 62.4456 167.092 63.3949C168.042 64.3441 168.575 65.6316 168.575 66.9741C168.575 68.3165 168.042 69.604 167.092 70.5533C166.143 71.5026 164.855 72.0358 163.513 72.0358H148.325V79.6285L166.55 93.2952C167.624 94.1007 168.334 95.2998 168.524 96.6288C168.714 97.9577 168.368 99.3077 167.563 100.382C166.757 101.456 165.558 102.166 164.229 102.356C162.899 102.545 161.549 102.199 160.475 101.394L148.325 92.2829V198.58C148.325 198.819 148.308 199.058 148.274 199.295L138.974 264.382H143.262C149.973 264.39 156.407 267.059 161.153 271.804C165.898 276.548 168.568 282.981 168.575 289.691C168.575 291.034 168.042 292.321 167.092 293.27C166.143 294.22 164.855 294.753 163.513 294.753H133.137C121.057 294.739 109.476 289.935 100.934 281.395C92.3918 272.855 87.587 261.275 87.5734 249.197V235.839C82.2526 239.075 76.7003 241.916 70.9618 244.336L68.0976 264.382H72.3856C79.0967 264.39 85.5308 267.059 90.2763 271.804C95.0218 276.548 97.6911 282.981 97.6987 289.691C97.6987 291.034 97.1653 292.321 96.2159 293.27C95.2664 294.22 93.9787 294.753 92.6361 294.753H62.2604C51.0578 294.738 40.2523 290.602 31.9028 283.134C23.5533 275.667 18.2434 265.389 16.9849 254.259H-41.8338L-43.2798 264.382H-38.9918C-32.2806 264.39 -25.8465 267.059 -21.1011 271.804C-16.3556 276.548 -13.6863 282.981 -13.6787 289.691C-13.6787 291.034 -14.2121 292.321 -15.1615 293.27C-16.111 294.22 -17.3986 294.753 -18.7413 294.753H-28.8805C-25.5806 299.128 -23.7982 304.459 -23.8039 309.938C-23.8039 311.281 -24.3373 312.568 -25.2867 313.517C-26.2362 314.467 -27.5239 315 -28.8666 315H-69.3674C-86.8163 314.98 -103.545 308.041 -115.883 295.705C-128.221 283.369 -135.162 266.643 -135.181 249.197V158.086C-135.162 140.64 -128.221 123.914 -115.883 111.578C-103.545 99.2417 -86.8163 92.3026 -69.3674 92.2829ZM97.6987 249.197C97.7092 258.591 101.446 267.597 108.09 274.24C114.734 280.883 123.741 284.619 133.137 284.629H157.582C156.532 281.671 154.592 279.11 152.028 277.297C149.464 275.485 146.402 274.51 143.262 274.506H133.137C132.412 274.506 131.695 274.35 131.035 274.049C130.375 273.748 129.788 273.309 129.312 272.761C128.837 272.213 128.485 271.569 128.28 270.874C128.075 270.178 128.022 269.447 128.125 268.729L138.2 198.22V177.392C129.444 197.834 115.479 215.623 97.6987 228.983V249.197ZM-125.056 249.197C-125.039 263.959 -119.167 278.112 -108.727 288.55C-98.2867 298.988 -84.1318 304.86 -69.3674 304.876H-34.7968C-35.8471 301.918 -37.7873 299.357 -40.3512 297.544C-42.915 295.732 -45.977 294.757 -49.117 294.753C-61.197 294.739 -72.7784 289.935 -81.3202 281.395C-89.8621 272.855 -94.6669 261.275 -94.6805 249.197C-94.6729 242.487 -92.0036 236.054 -87.2581 231.31C-82.5126 226.565 -76.0785 223.896 -69.3674 223.888C-68.0247 223.888 -66.737 224.422 -65.7876 225.371C-64.8382 226.32 -64.3048 227.608 -64.3048 228.95C-64.3048 230.293 -64.8382 231.58 -65.7876 232.529C-66.737 233.479 -68.0247 234.012 -69.3674 234.012C-73.3941 234.016 -77.2545 235.618 -80.1018 238.465C-82.9491 241.311 -84.5507 245.171 -84.5552 249.197C-84.5447 258.591 -80.8076 267.597 -74.164 274.24C-67.5203 280.883 -58.5126 284.619 -49.117 284.629H-24.6715C-25.7219 281.671 -27.6621 279.11 -30.2259 277.297C-32.7898 275.485 -35.8517 274.51 -38.9918 274.506H-49.117C-49.8423 274.506 -50.5592 274.35 -51.2191 274.049C-51.8789 273.748 -52.4664 273.309 -52.9416 272.761C-53.4169 272.213 -53.7688 271.569 -53.9737 270.874C-54.1785 270.178 -54.2315 269.447 -54.129 268.729L-44.0038 197.864C-43.8139 196.535 -43.1038 195.336 -42.0297 194.53C-40.9555 193.725 -39.6053 193.379 -38.276 193.569C-36.9468 193.758 -35.7474 194.468 -34.9417 195.542C-34.136 196.616 -33.79 197.966 -33.9798 199.295L-40.3871 244.135H16.6969V198.58C16.6969 197.237 17.2303 195.95 18.1797 195C19.1291 194.051 20.4168 193.518 21.7595 193.518C23.1022 193.518 24.3899 194.051 25.3393 195C26.2888 195.95 26.8221 197.237 26.8221 198.58V249.197C26.8327 258.591 30.5697 267.597 37.2134 274.24C43.8571 280.883 52.8648 284.619 62.2604 284.629H86.7058C85.6555 281.671 83.7153 279.11 81.1515 277.297C78.5876 275.485 75.5256 274.51 72.3856 274.506H62.2604C61.5351 274.506 60.8182 274.35 60.1583 274.049C59.4985 273.748 58.911 273.309 58.4358 272.761C57.9605 272.213 57.6085 271.569 57.4037 270.874C57.1988 270.178 57.1459 269.447 57.2484 268.729L67.3736 197.864C67.5634 196.535 68.2735 195.336 69.3477 194.53C70.4219 193.725 71.7721 193.379 73.1013 193.569C74.4306 193.758 75.63 194.468 76.4357 195.542C77.2414 196.616 77.5874 197.966 77.3976 199.295L72.6609 232.446C92.3121 222.895 108.879 208.008 120.469 189.488C132.058 170.968 138.203 149.562 138.2 127.715V84.6902L119.974 71.0235C119.124 70.3868 118.495 69.4985 118.178 68.4846C117.861 67.4708 117.872 66.3829 118.208 65.3752C118.544 64.3675 119.189 63.4912 120.051 62.8707C120.913 62.2501 121.949 61.9168 123.012 61.918L138.2 61.9123V56.8506C138.204 50.3202 136.4 43.9161 132.986 38.3486C132.61 37.7364 132.369 37.0513 132.279 36.3387C132.188 35.6261 132.25 34.9024 132.461 34.2157C132.672 33.529 133.026 32.895 133.501 32.3559C133.976 31.8168 134.56 31.3848 135.214 31.0888C135.962 30.7532 136.617 30.2411 137.123 29.5966C137.628 28.952 137.97 28.1943 138.118 27.3885C138.266 26.5828 138.216 25.7531 137.972 24.9709C137.729 24.1887 137.299 23.4774 136.72 22.8981C136.14 22.3188 135.429 21.8889 134.646 21.6453C133.864 21.4018 133.034 21.3519 132.228 21.4999C131.422 21.6479 130.665 21.9895 130.02 22.4951C129.375 23.0008 128.863 23.6555 128.527 24.4028C128.231 25.0573 127.799 25.6413 127.26 26.1159C126.721 26.5906 126.087 26.945 125.4 27.1558C124.713 27.3665 123.989 27.4287 123.277 27.3381C122.564 27.2476 121.879 27.0064 121.266 26.6306C115.698 23.2175 109.293 21.4134 102.761 21.4183H82.5108C75.9793 21.4134 69.5741 23.2175 64.0057 26.6306C63.3934 27.0064 62.7082 27.2476 61.9955 27.3381C61.2828 27.4287 60.559 27.3665 59.8722 27.1558C59.1853 26.945 58.5512 26.5906 58.012 26.1159C57.4728 25.6413 57.0408 25.0573 56.7447 24.4028C56.4091 23.6555 55.8969 23.0008 55.2522 22.4951C54.6076 21.9895 53.8497 21.6479 53.0438 21.4999C52.2379 21.3519 51.4081 21.4018 50.6258 21.6453C49.8434 21.8889 49.132 22.3188 48.5526 22.8981C47.9732 23.4774 47.5432 24.1887 47.2996 24.9709C47.056 25.7531 47.0061 26.5828 47.1542 27.3885C47.3022 28.1943 47.6438 28.952 48.1496 29.5966C48.6553 30.2411 49.3101 30.7532 50.0576 31.0888C50.7122 31.3848 51.2963 31.8168 51.771 32.3559C52.2457 32.895 52.6002 33.529 52.811 34.2157C53.0218 34.9024 53.0839 35.6261 52.9934 36.3387C52.9028 37.0513 52.6616 37.7364 52.2858 38.3486C48.8721 43.9161 47.0676 50.3202 47.0726 56.8506V61.9123H62.2604C63.323 61.911 64.359 62.2493 65.2215 62.8698C66.084 63.4904 66.7291 64.3668 67.0653 65.3747C67.4015 66.3825 67.4117 67.4706 67.0944 68.4846C66.7772 69.4985 66.1487 70.3869 65.298 71.0235L43.2902 87.5261L26.457 129.595C26.1913 130.259 25.7878 130.859 25.2731 131.356C24.7584 131.853 24.1442 132.235 23.471 132.478C22.7979 132.72 22.081 132.817 21.3677 132.762C20.6543 132.707 19.9608 132.501 19.3326 132.159C18.7903 131.861 -35.641 102.406 -69.3674 102.406C-84.1318 102.423 -98.2867 108.295 -108.727 118.733C-119.167 129.171 -125.039 143.324 -125.056 158.086V249.197Z" fill="#3771C8"/>
</g>
<defs>
<clipPath id="clip0_3_81">
<rect width="180" height="180" fill="white"/>
</clipPath>
</defs>
</svg>
