<svg width="1096" height="303" viewBox="0 0 1096 303" fill="none" xmlns="http://www.w3.org/2000/svg">
<path opacity="0.1" d="M69.1749 195.047C24.9422 167.67 -21.818 141.867 11.0405 113.86C43.8991 85.8538 154.691 40.8547 266.326 27.0088C377.961 13.1629 551.943 19.1418 680.85 30.7849C809.756 42.4281 974.049 67.6024 1039.77 96.8676C1105.48 126.133 1108.43 178.369 1075.15 206.376C1041.87 234.382 917.6 248.858 840.087 264.906C762.575 280.955 704.019 300.465 610.077 302.668C516.136 304.87 366.587 296.059 276.437 278.123C186.286 260.186 113.408 222.424 69.1749 195.047C24.9422 167.67 -21.818 141.867 11.0405 113.86Z" fill="#3771C8"/>
<path d="M290.889 169.038C295.246 162.696 298.964 155.937 301.988 148.862V168.073L292.698 233.105C292.603 233.767 292.652 234.442 292.841 235.084C293.03 235.725 293.354 236.319 293.793 236.824C294.231 237.329 294.773 237.735 295.381 238.012C295.99 238.29 296.651 238.434 297.32 238.434H306.657C309.552 238.437 312.376 239.336 314.741 241.008C317.105 242.68 318.894 245.042 319.863 247.771H297.32C288.655 247.761 280.348 244.315 274.222 238.188C268.095 232.062 264.649 223.755 264.639 215.09V196.446C274.821 188.798 283.688 179.541 290.889 169.038V169.038Z" fill="white"/>
<path d="M259.97 36.5796L258.187 33.0134H261.754L259.97 36.5796Z" fill="white"/>
<path d="M110.574 79.6998C141.679 79.6998 191.871 106.867 192.374 107.141C192.953 107.457 193.593 107.647 194.251 107.698C194.909 107.748 195.57 107.659 196.191 107.436C196.811 107.212 197.378 106.86 197.852 106.401C198.327 105.943 198.699 105.389 198.944 104.777L214.465 65.9752L197.411 78.7661C196.92 79.1339 196.362 79.4016 195.768 79.5537C195.174 79.7059 194.556 79.7396 193.949 79.6529C193.342 79.5662 192.758 79.3608 192.231 79.0484C191.703 78.736 191.242 78.3228 190.874 77.8324C190.507 77.3419 190.239 76.7837 190.087 76.1898C189.935 75.5959 189.901 74.9778 189.988 74.3709C190.074 73.764 190.28 73.1801 190.592 72.6525C190.904 72.125 191.318 71.6641 191.808 71.2963L217.953 51.688H194.609C193.371 51.688 192.184 51.1961 191.308 50.3205C190.433 49.445 189.941 48.2575 189.941 47.0193C189.941 45.7811 190.433 44.5936 191.308 43.7181C192.184 42.8425 193.371 42.3507 194.609 42.3507H217.953V37.682C217.948 31.6588 219.612 25.752 222.76 20.617C223.107 20.0523 223.329 19.4204 223.413 18.7632C223.496 18.1059 223.439 17.4384 223.244 16.8051C223.05 16.1717 222.723 15.587 222.285 15.0897C221.848 14.5924 221.309 14.194 220.705 13.921C220.016 13.6115 219.412 13.1392 218.946 12.5447C218.479 11.9502 218.164 11.2513 218.028 10.5081C217.891 9.76491 217.937 8.99969 218.162 8.27824C218.387 7.55678 218.783 6.90069 219.317 6.36639C219.852 5.83209 220.508 5.43556 221.229 5.21092C221.951 4.98629 222.716 4.94026 223.459 5.07679C224.202 5.21332 224.901 5.52834 225.496 5.99474C226.09 6.46114 226.563 7.06496 226.872 7.75429C227.145 8.35793 227.543 8.89654 228.041 9.33433C228.538 9.77212 229.123 10.0991 229.756 10.2934C230.389 10.4878 231.057 10.5451 231.714 10.4616C232.371 10.3781 233.003 10.1557 233.568 9.80907C238.703 6.66101 244.61 4.99697 250.633 5.00154H269.308C275.331 4.99697 281.238 6.66101 286.373 9.80907C286.937 10.1557 287.569 10.3781 288.227 10.4616C288.884 10.5451 289.551 10.4878 290.185 10.2934C290.818 10.0991 291.403 9.77212 291.9 9.33433C292.397 8.89654 292.796 8.35793 293.069 7.75429C293.378 7.06496 293.851 6.46114 294.445 5.99474C295.039 5.52834 295.738 5.21332 296.482 5.07679C297.225 4.94026 297.99 4.98629 298.711 5.21092C299.433 5.43556 300.089 5.83209 300.623 6.36639C301.158 6.90069 301.554 7.55678 301.779 8.27824C302.003 8.99969 302.049 9.76491 301.913 10.5081C301.776 11.2513 301.461 11.9502 300.995 12.5447C300.529 13.1392 299.925 13.6115 299.235 13.921C298.632 14.194 298.093 14.5924 297.655 15.0897C297.218 15.587 296.891 16.1717 296.696 16.8051C296.502 17.4384 296.445 18.1059 296.528 18.7632C296.612 19.4204 296.834 20.0523 297.181 20.617C300.329 25.752 301.993 31.6588 301.988 37.682V42.3507H325.331C326.57 42.3507 327.757 42.8425 328.633 43.7181C329.508 44.5936 330 45.7811 330 47.0193C330 48.2575 329.508 49.445 328.633 50.3205C327.757 51.1961 326.57 51.688 325.331 51.688H301.988L328.133 71.2963C329.123 72.0392 329.778 73.1452 329.953 74.3709C330.128 75.5967 329.809 76.8418 329.066 77.8324C328.323 78.8229 327.217 79.4778 325.992 79.6529C324.766 79.828 323.521 79.509 322.53 78.7661L301.988 63.3596V103.043C301.991 123.193 296.325 142.937 285.637 160.019C274.95 177.1 259.672 190.831 241.55 199.64L245.918 169.064C246.093 167.838 245.774 166.593 245.031 165.603C244.288 164.612 243.182 163.957 241.956 163.782C240.73 163.607 239.485 163.926 238.494 164.669C237.504 165.412 236.849 166.518 236.674 167.744L227.337 233.105C227.242 233.767 227.291 234.442 227.48 235.084C227.669 235.725 227.993 236.319 228.431 236.824C228.87 237.329 229.412 237.735 230.02 238.012C230.629 238.29 231.29 238.434 231.958 238.434H241.296C244.191 238.437 247.015 239.336 249.379 241.008C251.744 242.68 253.533 245.042 254.502 247.771H231.958C223.294 247.761 214.987 244.315 208.861 238.188C202.734 232.062 199.288 223.755 199.278 215.09V168.404C199.278 167.166 198.786 165.978 197.911 165.103C197.035 164.227 195.848 163.735 194.609 163.735C193.371 163.735 192.184 164.227 191.308 165.103C190.433 165.978 189.941 167.166 189.941 168.404V210.422H137.302L143.208 169.064C143.383 167.838 143.064 166.593 142.321 165.603C141.578 164.612 140.472 163.957 139.246 163.782C138.02 163.607 136.775 163.926 135.784 164.669C134.794 165.412 134.139 166.518 133.964 167.744L124.626 233.105C124.532 233.767 124.581 234.442 124.77 235.084C124.959 235.725 125.283 236.319 125.721 236.824C126.16 237.329 126.701 237.735 127.31 238.012C127.918 238.29 128.579 238.434 129.248 238.434H138.586C141.481 238.437 144.305 239.336 146.669 241.008C149.034 242.68 150.823 245.042 151.791 247.771H129.248C120.584 247.761 112.277 244.315 106.151 238.188C100.024 232.062 96.5776 223.755 96.5679 215.09C96.5721 211.377 98.049 207.817 100.675 205.191C103.3 202.566 106.86 201.089 110.574 201.084C111.812 201.084 112.999 200.593 113.875 199.717C114.751 198.842 115.242 197.654 115.242 196.416C115.242 195.178 114.751 193.99 113.875 193.115C112.999 192.239 111.812 191.747 110.574 191.747C104.385 191.754 98.4515 194.216 94.0753 198.592C89.6991 202.968 87.2375 208.902 87.2306 215.09C87.2431 226.23 91.674 236.91 99.5511 244.788C107.428 252.665 118.108 257.096 129.248 257.108C132.144 257.112 134.968 258.011 137.332 259.683C139.696 261.354 141.486 263.717 142.454 266.445H110.574C96.9583 266.43 83.9049 261.014 74.2774 251.387C64.6498 241.759 59.2342 228.706 59.2187 215.09V131.055C59.2342 117.439 64.6498 104.386 74.2774 94.7584C83.9049 85.1308 96.9583 79.7153 110.574 79.6998V79.6998ZM287.982 33.0134C288.906 33.0134 289.808 32.7396 290.576 32.2266C291.344 31.7136 291.942 30.9844 292.295 30.1314C292.649 29.2783 292.741 28.3396 292.561 27.4339C292.381 26.5283 291.936 25.6964 291.283 25.0435C290.631 24.3906 289.799 23.946 288.893 23.7658C287.987 23.5857 287.049 23.6781 286.196 24.0315C285.343 24.3848 284.613 24.9832 284.1 25.751C283.587 26.5187 283.314 27.4214 283.314 28.3447C283.314 29.5829 283.805 30.7704 284.681 31.646C285.557 32.5215 286.744 33.0134 287.982 33.0134ZM250.633 61.0252C254.081 61.0276 257.407 59.753 259.97 57.4473C262.534 59.753 265.86 61.0276 269.308 61.0252C270.546 61.0252 271.733 60.5334 272.609 59.6578C273.484 58.7823 273.976 57.5948 273.976 56.3566C273.976 55.1184 273.484 53.9309 272.609 53.0554C271.733 52.1798 270.546 51.688 269.308 51.688C268.229 51.6864 267.185 51.3123 266.351 50.6289C265.516 49.9455 264.944 48.9948 264.731 47.9379L273.484 30.4305C273.84 29.7187 274.007 28.9279 273.971 28.1331C273.935 27.3384 273.697 26.566 273.278 25.8893C272.86 25.2127 272.275 24.6542 271.581 24.2668C270.886 23.8795 270.103 23.6761 269.308 23.6761H250.633C249.837 23.6761 249.055 23.8796 248.36 24.2671C247.665 24.6547 247.08 25.2135 246.662 25.8904C246.243 26.5674 246.005 27.3401 245.969 28.1351C245.934 28.9301 246.102 29.721 246.458 30.4328L255.211 47.9402C254.997 48.9969 254.425 49.9472 253.59 50.6302C252.756 51.3131 251.711 51.6868 250.633 51.688C249.395 51.688 248.207 52.1798 247.332 53.0554C246.456 53.9309 245.964 55.1184 245.964 56.3566C245.964 57.5948 246.456 58.7823 247.332 59.6578C248.207 60.5334 249.395 61.0252 250.633 61.0252ZM236.627 28.3447C236.627 27.4214 236.353 26.5187 235.84 25.751C235.327 24.9832 234.598 24.3848 233.745 24.0315C232.892 23.6781 231.953 23.5857 231.048 23.7658C230.142 23.946 229.31 24.3906 228.657 25.0435C228.004 25.6964 227.56 26.5283 227.38 27.4339C227.199 28.3396 227.292 29.2783 227.645 30.1314C227.999 30.9844 228.597 31.7136 229.365 32.2266C230.132 32.7396 231.035 33.0134 231.958 33.0134C233.197 33.0134 234.384 32.5215 235.26 31.646C236.135 30.7704 236.627 29.5829 236.627 28.3447Z" fill="white"/>
<path d="M252.21 54.9468C253.265 54.9455 254.287 54.5796 255.103 53.9112C255.919 53.2428 256.479 52.313 256.687 51.2793L248.125 34.1572C247.777 33.4611 247.613 32.6877 247.649 31.9104C247.684 31.1331 247.917 30.3778 248.327 29.716C248.736 29.0542 249.307 28.508 249.987 28.1292C250.667 27.7504 251.432 27.5515 252.21 27.5515H270.477C271.255 27.5515 272.021 27.7505 272.701 28.1295C273.381 28.5085 273.952 29.055 274.362 29.7171C274.771 30.3791 275.004 31.1348 275.039 31.9123C275.074 32.6898 274.91 33.4634 274.561 34.1595L265.999 51.2816C266.208 52.315 266.768 53.2444 267.585 53.9123C268.401 54.5803 269.422 54.9457 270.477 54.9468C271.688 54.9468 272.85 55.4279 273.706 56.2842C274.563 57.1404 275.044 58.3018 275.044 59.5127C275.044 60.7237 274.563 61.885 273.706 62.7413C272.85 63.5976 271.688 64.0786 270.477 64.0786C267.105 64.081 263.851 62.8344 261.344 60.5794C258.836 62.8344 255.583 64.081 252.21 64.0786C250.999 64.0786 249.838 63.5976 248.981 62.7413C248.125 61.885 247.644 60.7237 247.644 59.5127C247.644 58.3018 248.125 57.1404 248.981 56.2842C249.838 55.4279 250.999 54.9468 252.21 54.9468ZM261.344 40.171L263.088 36.6833H259.599L261.344 40.171ZM284.177 32.1174C284.177 33.0204 284.445 33.9032 284.947 34.654C285.448 35.4049 286.162 35.9901 286.996 36.3357C287.831 36.6813 288.749 36.7717 289.635 36.5955C290.52 36.4194 291.334 35.9845 291.973 35.3459C292.612 34.7074 293.046 33.8938 293.223 33.0081C293.399 32.1224 293.308 31.2044 292.963 30.3701C292.617 29.5358 292.032 28.8227 291.281 28.321C290.53 27.8193 289.647 27.5515 288.744 27.5515C287.533 27.5515 286.371 28.0325 285.515 28.8888C284.658 29.7451 284.177 30.9064 284.177 32.1174ZM238.51 32.1174C238.51 31.2143 238.243 30.3315 237.741 29.5807C237.239 28.8298 236.526 28.2446 235.691 27.899C234.857 27.5534 233.939 27.463 233.053 27.6392C232.167 27.8154 231.353 28.2502 230.715 28.8888C230.076 29.5273 229.641 30.3409 229.465 31.2266C229.289 32.1123 229.379 33.0304 229.725 33.8647C230.07 34.699 230.656 35.4121 231.407 35.9138C232.158 36.4155 233.041 36.6833 233.944 36.6833C235.155 36.6833 236.316 36.2022 237.173 35.3459C238.029 34.4897 238.51 33.3283 238.51 32.1174ZM115.21 73.2104C142.61 73.2104 181.763 91.9757 195.051 98.776L202.78 79.4577L200.15 81.429C199.671 81.7888 199.125 82.0506 198.544 82.1994C197.963 82.3482 197.358 82.3811 196.765 82.2963C196.171 82.2115 195.6 82.0107 195.084 81.7052C194.568 81.3997 194.117 80.9955 193.757 80.5159C193.397 80.0362 193.135 79.4903 192.987 78.9095C192.838 78.3287 192.805 77.7242 192.89 77.1306C192.974 76.537 193.175 75.966 193.481 75.45C193.786 74.9341 194.191 74.4834 194.67 74.1236L209.303 63.1512L211.11 58.6332V54.9468H197.41C196.199 54.9468 195.038 54.4658 194.181 53.6095C193.325 52.7533 192.844 51.5919 192.844 50.381C192.844 49.17 193.325 48.0086 194.181 47.1524C195.038 46.2961 196.199 45.8151 197.41 45.8151H211.11V41.2492C211.108 35.1178 212.479 29.0636 215.122 23.5312C213.84 22.262 212.822 20.7521 212.126 19.0882C211.429 17.4243 211.069 15.6392 211.064 13.8355C211.06 12.0318 211.412 10.245 212.1 8.57775C212.789 6.91051 213.8 5.39567 215.075 4.12026C216.351 2.84484 217.866 1.83399 219.533 1.14575C221.201 0.457521 222.988 0.105476 224.792 0.109842C226.596 0.114208 228.381 0.474899 230.046 1.17119C231.71 1.86749 233.22 2.88567 234.489 4.16724C240.023 1.52409 246.078 0.153506 252.21 0.156103H270.477C276.609 0.153506 282.665 1.52409 288.198 4.16724C289.467 2.88567 290.978 1.86749 292.642 1.17119C294.306 0.474899 296.091 0.114208 297.895 0.109842C299.699 0.105476 301.486 0.457521 303.154 1.14575C304.822 1.83399 306.337 2.84484 307.612 4.12026C308.888 5.39567 309.899 6.91051 310.587 8.57775C311.276 10.245 311.628 12.0318 311.623 13.8355C311.619 15.6392 311.258 17.4243 310.562 19.0882C309.865 20.7521 308.847 22.262 307.565 23.5312C310.209 29.0636 311.58 35.1178 311.577 41.2492V45.8151H325.277C326.488 45.8151 327.65 46.2961 328.506 47.1524C329.363 48.0086 329.844 49.17 329.844 50.381C329.844 51.5919 329.363 52.7533 328.506 53.6095C327.65 54.4658 326.488 54.9468 325.277 54.9468H311.577V61.7957L328.017 74.1236C328.986 74.8502 329.627 75.9318 329.798 77.1306C329.969 78.3294 329.657 79.5471 328.93 80.5159C328.204 81.4846 327.122 82.1251 325.923 82.2963C324.724 82.4676 323.506 82.1556 322.537 81.429L311.577 73.2104V169.094C311.577 169.31 311.562 169.526 311.531 169.74L303.142 228.451H307.01C313.064 228.458 318.868 230.865 323.148 235.145C327.429 239.425 329.837 245.228 329.844 251.28C329.844 252.491 329.363 253.653 328.506 254.509C327.65 255.365 326.488 255.846 325.277 255.846H297.877C286.98 255.834 276.534 251.501 268.829 243.797C261.123 236.093 256.789 225.648 256.777 214.753V202.703C251.977 205.623 246.969 208.185 241.793 210.368L239.209 228.451H243.077C249.131 228.458 254.935 230.865 259.215 235.145C263.496 239.425 265.904 245.228 265.91 251.28C265.91 252.491 265.429 253.653 264.573 254.509C263.716 255.365 262.555 255.846 261.344 255.846H233.944C223.839 255.832 214.092 252.102 206.56 245.366C199.028 238.63 194.239 229.359 193.103 219.319H140.047L138.742 228.451H142.61C148.664 228.458 154.468 230.865 158.749 235.145C163.029 239.425 165.437 245.228 165.444 251.28C165.444 252.491 164.963 253.653 164.106 254.509C163.25 255.365 162.088 255.846 160.877 255.846H151.731C154.708 259.792 156.316 264.601 156.31 269.544C156.31 270.755 155.829 271.916 154.973 272.773C154.116 273.629 152.955 274.11 151.744 274.11H115.21C99.4709 274.092 84.3811 267.833 73.2516 256.705C62.122 245.577 55.8616 230.49 55.8438 214.753V132.567C55.8616 116.83 62.122 101.743 73.2516 90.6153C84.3811 79.4876 99.4709 73.2283 115.21 73.2104ZM265.91 214.753C265.92 223.227 269.291 231.351 275.284 237.343C281.277 243.335 289.402 246.705 297.877 246.714H319.928C318.98 244.046 317.23 241.735 314.918 240.1C312.605 238.465 309.843 237.586 307.01 237.583H297.877C297.223 237.583 296.576 237.442 295.981 237.171C295.386 236.899 294.856 236.503 294.427 236.008C293.998 235.514 293.681 234.934 293.496 234.306C293.311 233.679 293.264 233.019 293.356 232.371L302.444 168.77V149.982C294.546 168.422 281.949 184.468 265.91 196.519V214.753ZM64.9771 214.753C64.9922 228.069 70.2895 240.835 79.7068 250.251C89.1241 259.667 101.892 264.963 115.21 264.978H146.394C145.447 262.309 143.697 259.999 141.384 258.364C139.072 256.729 136.31 255.85 133.477 255.846C122.58 255.834 112.134 251.501 104.429 243.797C96.7234 236.093 92.3893 225.648 92.3771 214.753C92.3839 208.701 94.7917 202.898 99.0723 198.618C103.353 194.338 109.157 191.93 115.21 191.924C116.422 191.924 117.583 192.405 118.44 193.261C119.296 194.117 119.777 195.279 119.777 196.49C119.777 197.701 119.296 198.862 118.44 199.718C117.583 200.574 116.422 201.055 115.21 201.055C111.578 201.06 108.096 202.504 105.528 205.072C102.959 207.64 101.515 211.122 101.51 214.753C101.52 223.227 104.891 231.351 110.884 237.343C116.877 243.335 125.002 246.705 133.477 246.714H155.528C154.58 244.046 152.83 241.735 150.518 240.1C148.205 238.465 145.443 237.586 142.61 237.583H133.477C132.823 237.583 132.176 237.442 131.581 237.171C130.986 236.899 130.456 236.503 130.027 236.008C129.598 235.514 129.281 234.934 129.096 234.306C128.911 233.679 128.864 233.019 128.956 232.371L138.089 168.449C138.261 167.25 138.901 166.168 139.87 165.441C140.839 164.715 142.057 164.403 143.256 164.574C144.455 164.745 145.537 165.386 146.264 166.354C146.991 167.323 147.303 168.541 147.131 169.74L141.352 210.187H192.844V169.094C192.844 167.883 193.325 166.722 194.181 165.866C195.038 165.009 196.199 164.528 197.41 164.528C198.622 164.528 199.783 165.009 200.64 165.866C201.496 166.722 201.977 167.883 201.977 169.094V214.753C201.987 223.227 205.358 231.351 211.35 237.343C217.343 243.335 225.469 246.705 233.944 246.714H255.994C255.047 244.046 253.297 241.735 250.984 240.1C248.672 238.465 245.909 237.586 243.077 237.583H233.944C233.289 237.583 232.643 237.442 232.048 237.171C231.452 236.899 230.922 236.503 230.494 236.008C230.065 235.514 229.748 234.934 229.563 234.306C229.378 233.679 229.33 233.019 229.423 232.371L238.556 168.449C238.727 167.25 239.368 166.168 240.337 165.441C241.306 164.715 242.524 164.403 243.723 164.574C244.922 164.745 246.004 165.386 246.73 166.354C247.457 167.323 247.769 168.541 247.598 169.74L243.325 199.643C261.052 191.027 275.996 177.599 286.45 160.893C296.904 144.188 302.447 124.878 302.444 105.172V66.3616L286.004 54.0337C285.237 53.4593 284.67 52.6581 284.384 51.7435C284.098 50.829 284.107 49.8476 284.41 48.9387C284.714 48.0297 285.295 47.2393 286.073 46.6795C286.851 46.1198 287.785 45.8191 288.744 45.8202V45.8151H302.444V41.2492C302.448 35.3585 300.821 29.5817 297.741 24.5597C297.402 24.0075 297.185 23.3894 297.103 22.7467C297.021 22.1039 297.077 21.4511 297.267 20.8317C297.458 20.2122 297.777 19.6403 298.206 19.154C298.634 18.6677 299.161 18.2781 299.751 18.011C300.425 17.7083 301.016 17.2464 301.472 16.665C301.928 16.0836 302.237 15.4001 302.37 14.6733C302.504 13.9464 302.459 13.1981 302.239 12.4925C302.019 11.7869 301.631 11.1452 301.109 10.6227C300.586 10.1002 299.944 9.71236 299.239 9.49267C298.533 9.27297 297.784 9.22796 297.057 9.36149C296.331 9.49502 295.647 9.8031 295.065 10.2592C294.484 10.7154 294.022 11.3059 293.719 11.9801C293.452 12.5704 293.062 13.0972 292.576 13.5253C292.09 13.9535 291.518 14.2732 290.898 14.4633C290.278 14.6534 289.626 14.7095 288.983 14.6278C288.34 14.5461 287.722 14.3286 287.169 13.9896C282.146 10.9108 276.369 9.28343 270.477 9.28789H252.21C246.319 9.28343 240.541 10.9108 235.518 13.9896C234.966 14.3286 234.348 14.5461 233.705 14.6278C233.062 14.7095 232.409 14.6534 231.789 14.4633C231.17 14.2732 230.598 13.9535 230.112 13.5253C229.625 13.0972 229.235 12.5704 228.968 11.9801C228.666 11.3059 228.204 10.7154 227.622 10.2592C227.041 9.8031 226.357 9.49502 225.63 9.36149C224.903 9.22796 224.155 9.27297 223.449 9.49267C222.743 9.71236 222.101 10.1002 221.579 10.6227C221.056 11.1452 220.668 11.7869 220.449 12.4925C220.229 13.1981 220.184 13.9464 220.317 14.6733C220.451 15.4001 220.759 16.0836 221.215 16.665C221.671 17.2464 222.262 17.7083 222.936 18.011C223.527 18.2781 224.054 18.6677 224.482 19.154C224.91 19.6403 225.23 20.2122 225.42 20.8317C225.61 21.4511 225.666 22.1039 225.585 22.7467C225.503 23.3894 225.285 24.0075 224.946 24.5597C221.867 29.5817 220.239 35.3585 220.244 41.2492V45.8151H233.944V45.8196C234.902 45.8184 235.837 46.119 236.615 46.6788C237.393 47.2385 237.975 48.0291 238.278 48.9382C238.581 49.8473 238.59 50.8288 238.304 51.7435C238.018 52.6581 237.451 53.4594 236.684 54.0337L216.832 68.9196L201.648 106.867C201.408 107.466 201.044 108.008 200.58 108.456C200.115 108.904 199.561 109.249 198.954 109.468C198.347 109.686 197.7 109.773 197.057 109.724C196.413 109.674 195.788 109.489 195.221 109.18C194.732 108.912 145.633 82.3422 115.21 82.3422C101.892 82.3573 89.1241 87.6537 79.7068 97.0694C70.2895 106.485 64.9922 119.251 64.9771 132.567V214.753Z" fill="#3771C8"/>
<path d="M398.631 155.696C398.631 135.821 391.527 125.884 377.319 125.884C363.11 125.884 356.006 135.821 356.006 155.696C356.006 175.571 363.11 185.508 377.319 185.508C391.527 185.508 398.631 175.571 398.631 155.696ZM409.034 190.709C401.253 199.082 390.681 203.269 377.319 203.269C363.956 203.269 353.385 199.082 345.604 190.709C337.823 182.252 333.933 170.581 333.933 155.696C333.933 140.811 337.823 129.182 345.604 120.81C353.385 112.352 363.956 108.124 377.319 108.124C390.681 108.124 401.253 112.352 409.034 120.81C416.815 129.182 420.705 140.811 420.705 155.696C420.705 170.581 416.815 182.252 409.034 190.709ZM424.396 127.279C422.451 127.279 420.759 126.561 419.321 125.123C417.884 123.685 417.165 121.994 417.165 120.048V116.623C417.165 114.678 417.884 112.987 419.321 111.549C420.759 110.111 422.451 109.392 424.396 109.392H480.975C482.92 109.392 484.612 110.111 486.05 111.549C487.487 112.987 488.206 114.678 488.206 116.623V120.048C488.206 121.994 487.487 123.685 486.05 125.123C484.612 126.561 482.92 127.279 480.975 127.279H464.737C464.061 127.279 463.722 127.618 463.722 128.294V194.769C463.722 196.714 463.003 198.406 461.566 199.843C460.128 201.281 458.436 202 456.491 202H448.88C446.935 202 445.243 201.281 443.805 199.843C442.368 198.406 441.649 196.714 441.649 194.769V128.294C441.649 127.618 441.31 127.279 440.634 127.279H424.396ZM483.019 127.279C481.074 127.279 479.382 126.561 477.945 125.123C476.507 123.685 475.788 121.994 475.788 120.048V116.623C475.788 114.678 476.507 112.987 477.945 111.549C479.382 110.111 481.074 109.392 483.019 109.392H539.598C541.544 109.392 543.235 110.111 544.673 111.549C546.111 112.987 546.829 114.678 546.829 116.623V120.048C546.829 121.994 546.111 123.685 544.673 125.123C543.235 126.561 541.544 127.279 539.598 127.279H523.36C522.684 127.279 522.346 127.618 522.346 128.294V194.769C522.346 196.714 521.627 198.406 520.189 199.843C518.751 201.281 517.06 202 515.115 202H507.503C505.558 202 503.866 201.281 502.428 199.843C500.991 198.406 500.272 196.714 500.272 194.769V128.294C500.272 127.618 499.934 127.279 499.257 127.279H483.019ZM559.91 202C557.965 202 556.273 201.281 554.836 199.843C553.482 198.406 552.806 196.714 552.806 194.769V116.623C552.806 114.678 553.482 112.987 554.836 111.549C556.273 110.111 557.965 109.392 559.91 109.392H604.818C606.764 109.392 608.413 110.111 609.766 111.549C611.204 112.987 611.923 114.678 611.923 116.623V119.541C611.923 121.486 611.204 123.178 609.766 124.615C608.413 126.053 606.764 126.772 604.818 126.772H575.387C574.71 126.772 574.372 127.11 574.372 127.787V144.532C574.372 145.294 574.71 145.674 575.387 145.674H602.281C604.226 145.674 605.876 146.393 607.229 147.831C608.666 149.269 609.385 150.96 609.385 152.905V154.808C609.385 156.753 608.666 158.445 607.229 159.882C605.876 161.32 604.226 162.039 602.281 162.039H575.387C574.71 162.039 574.372 162.377 574.372 163.054V183.605C574.372 184.282 574.71 184.62 575.387 184.62H604.818C606.764 184.62 608.413 185.339 609.766 186.777C611.204 188.215 611.923 189.906 611.923 191.851V194.769C611.923 196.714 611.204 198.406 609.766 199.843C608.413 201.281 606.764 202 604.818 202H559.91ZM642.293 126.391V150.749C642.293 151.51 642.631 151.89 643.308 151.89H649.397C655.317 151.89 659.842 150.664 662.971 148.211C666.1 145.674 667.665 142.164 667.665 137.682C667.665 128.886 661.871 124.489 650.285 124.489C647.663 124.489 645.38 124.658 643.434 124.996C642.673 125.165 642.293 125.63 642.293 126.391ZM628.338 202C626.393 202 624.701 201.281 623.264 199.843C621.826 198.406 621.107 196.714 621.107 194.769V117.258C621.107 115.143 621.784 113.325 623.137 111.803C624.575 110.28 626.308 109.434 628.338 109.265C635.865 108.504 643.604 108.124 651.553 108.124C664.239 108.124 673.669 110.534 679.843 115.355C686.102 120.091 689.231 126.857 689.231 135.652C689.231 141.319 687.582 146.435 684.283 151.002C680.985 155.485 676.672 158.698 671.344 160.644C671.259 160.644 671.217 160.686 671.217 160.771C671.217 160.94 671.301 161.024 671.47 161.024C675.615 163.392 679.124 168.382 682 175.994L689.231 195.276C689.823 196.883 689.611 198.406 688.597 199.843C687.582 201.281 686.228 202 684.537 202H676.799C674.6 202 672.612 201.366 670.836 200.097C669.06 198.829 667.834 197.179 667.157 195.15L660.814 176.882C659.63 173.33 658.192 170.919 656.501 169.651C654.81 168.382 652.188 167.748 648.636 167.748H643.308C642.631 167.748 642.293 168.128 642.293 168.89V194.769C642.293 196.714 641.574 198.406 640.136 199.843C638.698 201.281 637.007 202 635.062 202H628.338ZM694.583 127.279C692.638 127.279 690.946 126.561 689.508 125.123C688.071 123.685 687.352 121.994 687.352 120.048V116.623C687.352 114.678 688.071 112.987 689.508 111.549C690.946 110.111 692.638 109.392 694.583 109.392H751.162C753.107 109.392 754.799 110.111 756.237 111.549C757.674 112.987 758.393 114.678 758.393 116.623V120.048C758.393 121.994 757.674 123.685 756.237 125.123C754.799 126.561 753.107 127.279 751.162 127.279H734.924C734.248 127.279 733.909 127.618 733.909 128.294V194.769C733.909 196.714 733.19 198.406 731.753 199.843C730.315 201.281 728.624 202 726.678 202H719.067C717.122 202 715.43 201.281 713.992 199.843C712.555 198.406 711.836 196.714 711.836 194.769V128.294C711.836 127.618 711.497 127.279 710.821 127.279H694.583ZM824.628 155.696C824.628 135.821 817.524 125.884 803.316 125.884C789.107 125.884 782.003 135.821 782.003 155.696C782.003 175.571 789.107 185.508 803.316 185.508C817.524 185.508 824.628 175.571 824.628 155.696ZM835.031 190.709C827.25 199.082 816.678 203.269 803.316 203.269C789.953 203.269 779.381 199.082 771.601 190.709C763.82 182.252 759.93 170.581 759.93 155.696C759.93 140.811 763.82 129.182 771.601 120.81C779.381 112.352 789.953 108.124 803.316 108.124C816.678 108.124 827.25 112.352 835.031 120.81C842.811 129.182 846.702 140.811 846.702 155.696C846.702 170.581 842.811 182.252 835.031 190.709ZM865.108 194.896L849.505 116.496C849.082 114.636 849.462 112.987 850.646 111.549C851.915 110.111 853.479 109.392 855.34 109.392H862.698C864.728 109.392 866.546 110.069 868.153 111.422C869.76 112.775 870.69 114.467 870.944 116.496L879.57 179.926C879.57 180.011 879.613 180.053 879.697 180.053C879.782 180.053 879.824 180.011 879.824 179.926L887.689 116.496C887.943 114.467 888.831 112.775 890.353 111.422C891.876 110.069 893.652 109.392 895.682 109.392H907.606C909.636 109.392 911.412 110.069 912.935 111.422C914.457 112.775 915.345 114.467 915.599 116.496L923.464 179.926C923.464 180.011 923.506 180.053 923.591 180.053C923.675 180.053 923.718 180.011 923.718 179.926L932.344 116.496C932.598 114.467 933.528 112.775 935.135 111.422C936.742 110.069 938.56 109.392 940.59 109.392H947.44C949.301 109.392 950.823 110.111 952.007 111.549C953.191 112.987 953.614 114.636 953.276 116.496L937.672 194.896C937.249 196.926 936.234 198.617 934.628 199.97C933.021 201.323 931.16 202 929.046 202H918.263C916.233 202 914.415 201.323 912.808 199.97C911.285 198.617 910.397 196.926 910.144 194.896L901.517 131.466C901.517 131.381 901.475 131.339 901.39 131.339C901.306 131.339 901.263 131.381 901.263 131.466L892.637 194.896C892.383 196.926 891.453 198.617 889.846 199.97C888.324 201.323 886.548 202 884.518 202H873.735C871.62 202 869.718 201.323 868.026 199.97C866.419 198.617 865.447 196.926 865.108 194.896ZM969.21 202C967.265 202 965.573 201.281 964.135 199.843C962.698 198.406 961.979 196.714 961.979 194.769V116.623C961.979 114.678 962.698 112.987 964.135 111.549C965.573 110.111 967.265 109.392 969.21 109.392H975.426C980.247 109.392 983.756 111.507 985.955 115.735L1012.6 166.099C1012.6 166.183 1012.64 166.225 1012.72 166.225C1012.81 166.225 1012.85 166.183 1012.85 166.099V116.623C1012.85 114.678 1013.57 112.987 1015.01 111.549C1016.44 110.111 1018.14 109.392 1020.08 109.392H1026.3C1028.24 109.392 1029.93 110.111 1031.37 111.549C1032.81 112.987 1033.53 114.678 1033.53 116.623V194.769C1033.53 196.714 1032.81 198.406 1031.37 199.843C1029.93 201.281 1028.24 202 1026.3 202H1020.08C1015.26 202 1011.75 199.886 1009.55 195.657L982.911 145.294C982.911 145.209 982.868 145.167 982.784 145.167C982.699 145.167 982.657 145.209 982.657 145.294V194.769C982.657 196.714 981.938 198.406 980.5 199.843C979.063 201.281 977.371 202 975.426 202H969.21Z" fill="#3771C8"/>
</svg>
